<svg xmlns="http://www.w3.org/2000/svg"
  width="512" height="512" viewBox="0 0 512 512">

  <!-- White neuron on transparent background (sparkle centered) -->
  <g transform="translate(3,561) scale(0.0575,-0.0575)"
     fill="white" stroke="none" fill-rule="evenodd">
    <path d="M4004 7956 c-255 -119 -174 -559 195 -1066 245 -336 171 -619 -183
-706 -329 -82 -485 130 -486 661 -1 454 -64 809 -163 914 -103 108 -271 106
-383 -5 -87 -88 -93 -160 -29 -360 55 -174 95 -406 78 -451 -13 -34 -57 -8
-320 189 -226 169 -330 178 -457 37 -159 -175 -59 -366 273 -521 574 -268 965
-964 589 -1048 -163 -37 -355 88 -523 339 -203 301 -398 370 -562 199 -162
-169 -75 -363 265 -593 283 -190 256 -332 -83 -431 -277 -81 -373 -242 -250
-421 142 -205 442 -137 835 188 325 268 713 90 641 -294 -48 -258 -237 -382
-666 -436 -530 -68 -809 -329 -633 -593 93 -141 205 -142 417 -5 410 264 519
157 239 -235 -235 -329 -262 -513 -94 -627 218 -147 381 -39 537 356 198 501
275 483 419 -97 73 -295 232 -419 426 -331 271 123 228 416 -130 886 -192 253
-227 455 -108 626 215 307 753 188 1432 -317 245 -182 284 -210 382 -268 372
-222 696 -271 1183 -179 183 34 165 6 165 265 0 259 20 237 -180 198 -85 -17
-184 -32 -220 -35 -36 -3 -98 -7 -138 -10 -634 -44 -1280 615 -1107 1131 115
342 340 399 705 178 309 -187 454 -189 549 -10 119 226 -42 405 -439 490 -185
40 -198 56 -140 172 74 147 146 208 463 395 255 150 317 332 169 501 -175 199
-506 22 -847 -452 -234 -325 -418 -406 -657 -287 -438 216 -285 795 242 917
369 85 427 105 548 183 271 175 323 455 107 570 -100 53 -206 23 -355 -103
-259 -218 -356 -186 -294 97 48 220 -1 345 -154 397 -197 68 -312 -50 -387
-398 -95 -444 -168 -535 -314 -388 -96 96 -132 207 -159 490 -24 249 -204 378
-398 288z m392 -2016 c32 -11 38 -19 96 -129 108 -203 241 -328 450 -424 151
-68 149 -153 -5 -227 -210 -100 -345 -232 -447 -432 -90 -178 -149 -176 -251
7 -116 210 -251 340 -437 422 -168 74 -168 151 1 234 214 106 349 235 444 424
47 94 69 123 96 128 12 2 22 5 23 6 1 0 14 -4 30 -9z"/>
    <path d="M6947 5239 c-277 -68 -312 -435 -52 -550 229 -102 477 146 376 377
-54 123 -203 203 -324 173z"/>
  </g>
</svg>
